<?xml version="1.0" encoding="utf-8"?>
<!-- Generator: Adobe Illustrator 16.0.3, SVG Export Plug-In . SVG Version: 6.00 Build 0)  -->
<!DOCTYPE svg PUBLIC "-//W3C//DTD SVG 1.1//EN" "http://www.w3.org/Graphics/SVG/1.1/DTD/svg11.dtd">
<svg version="1.1" id="Layer_1" xmlns="http://www.w3.org/2000/svg" xmlns:xlink="http://www.w3.org/1999/xlink" x="0px" y="0px"
	 width="63.41211px" height="63.41211px" viewBox="0 0 63.41211 63.41211" enable-background="new 0 0 63.41211 63.41211"
	 xml:space="preserve">
<g>
	<path fill="#41B1E5" d="M63.41211,31.70605c0,17.51074-14.19531,31.70605-31.70605,31.70605
		C14.19629,63.41211,0,49.2168,0,31.70605C0,14.19482,14.19629,0,31.70605,0C49.2168,0,63.41211,14.19482,63.41211,31.70605"/>
	<path fill="#FFFFFF" d="M50.54492,41.12109v1.25879c0,0.96777-0.01562,1.93652,0.00488,2.9043
		c0.0166,0.72656-0.29297,1.25879-0.95801,1.48633c-0.64844,0.22168-1.33203,0.40527-2.01074,0.45996
		c-1.77051,0.1416-3.54785,0.20898-5.30078-0.19434c-0.30469-0.07031-0.60352-0.19629-0.88477-0.33691
		c-0.56738-0.28418-0.84277-0.75391-0.83887-1.39941c0.00977-1.22754,0.00293-2.45605,0.00293-3.68359v-0.52148h-0.55762
		c-5.46289,0-10.9248,0.00586-16.38672-0.00977c-0.43457-0.00098-0.56543,0.10156-0.55273,0.54883
		c0.03516,1.18457,0.01465,2.36914,0.01172,3.55469c-0.00098,0.93262-0.27539,1.41992-1.18359,1.67676
		c-0.82324,0.23145-1.69336,0.39062-2.54785,0.4082c-1.37988,0.02637-2.7627-0.0791-4.14355-0.15332
		c-0.28223-0.01465-0.56543-0.11719-0.83496-0.21387c-0.9502-0.33887-1.27441-0.8125-1.27441-1.81738v-3.96094
		c-0.35352-0.04199-0.68652-0.05078-1.00488-0.12305c-1.53613-0.34473-2.61133-1.66406-2.61816-3.24414
		c-0.01367-2.96191-0.01465-5.92383,0-8.88574c0.00879-1.81787,1.39258-3.23682,3.20801-3.3291
		c0.34473-0.01709,0.69238-0.00195,1.06543-0.00195c0.10254-0.81982,0.18359-1.61914,0.30469-2.41211
		c0.31836-2.08691,0.74121-5.14795,1.64258-7.07666c0.43848-0.93604,0.97949-1.79932,1.78223-2.47607
		c0.77832-0.65625,1.68555-0.91309,2.68652-0.91211c7.81738,0.00195,15.63477,0.00781,23.45312-0.00488
		c1.7832-0.00293,2.99121,0.896,3.88672,2.33105c1.03418,1.65576,1.55176,4.50391,1.9082,6.39697
		c0.23145,1.23193,0.37402,2.48193,0.52734,3.72803c0.03809,0.30664,0.16016,0.37598,0.44043,0.37598
		c0.44629,0.00098,0.9043-0.01416,1.33496,0.0791c1.45898,0.31787,2.54297,1.59473,2.55957,3.09961
		c0.03418,3.07812,0.03809,6.15625,0.00293,9.2334c-0.01953,1.7041-1.38379,3.04688-3.08301,3.16016
		C50.9873,41.08008,50.78613,41.10059,50.54492,41.12109 M31.80273,38.58008h18.9375c0.72656,0,1.06055-0.29883,1.05664-0.94824
		c-0.01562-2.85938-0.03418-5.71777-0.05273-8.57666c-0.00488-0.79199-0.30371-1.08105-1.11426-1.08105h-37.6582
		c-0.86719,0-1.13672,0.26514-1.1377,1.13672c-0.00195,2.7749-0.00195,5.54736,0,8.32178
		c0.00098,0.90527,0.25,1.14746,1.16211,1.14746H31.80273 M47.48242,25.48682c-0.22363-2.33496-0.5498-5.57471-1.43652-7.68359
		c-0.29883-0.70996-0.72266-1.37402-1.15234-2.01807c-0.31836-0.47803-0.81152-0.66992-1.41895-0.66895
		c-7.80176,0.01367-15.60254,0.0127-23.40332,0.00195c-0.58789-0.00098-1.04395,0.20166-1.39355,0.646
		c-0.22949,0.29297-0.48047,0.59668-0.60938,0.93896c-0.43066,1.14307-0.89258,3.28613-1.1875,4.4668
		c-0.34668,1.39209-0.5332,2.82324-0.79785,4.28711c0.24902,0.01514,0.38867,0.02979,0.5293,0.02979
		c5.60449,0.00146-3.97168-0.00098,1.63379,0.0083c0.32129,0,0.46875-0.0752,0.56641-0.41113
		c0.69727-2.37305,3.10449-4.12793,5.50586-4.04492c2.59668,0.08887,4.60156,1.63281,5.4209,4.15576
		c0.03809,0.11719,0.19238,0.27539,0.29785,0.2793C30.76953,25.49805,46.68555,25.48682,47.48242,25.48682 M21.33496,25.45703
		h5.77734c-0.33105-1.0791-1.64941-1.92822-2.93945-1.91797C22.92676,23.54785,21.62793,24.41602,21.33496,25.45703"/>
	<path fill="#FFFFFF" d="M49.15234,32.97168c0.00781,1.57031-1.2666,2.85645-2.83496,2.86035
		c-1.55078,0.00488-2.84473-1.28223-2.86719-2.84668c-0.02051-1.53516,1.30469-2.86914,2.84766-2.86523
		C47.8623,30.12402,49.14453,31.40527,49.15234,32.97168 M47.28027,33.03223c0.00586-0.53418-0.42773-0.97852-0.95898-0.98242
		c-0.52148-0.00391-0.98633,0.44727-0.99219,0.96094c-0.00684,0.54688,0.4375,0.99609,0.98145,0.99609
		C46.8418,34.00488,47.27441,33.57031,47.28027,33.03223"/>
	<path fill="#FFFFFF" d="M20.11719,32.96777c0.00684,1.5625-1.27734,2.85742-2.84082,2.86328
		c-1.55273,0.00586-2.85449-1.28711-2.8623-2.84375c-0.00781-1.55811,1.27734-2.85693,2.84082-2.86816
		C18.79785,30.10742,20.11035,31.41406,20.11719,32.96777 M17.30664,32.05371c-0.52344-0.01855-0.99121,0.4082-1.01758,0.92969
		c-0.02734,0.5293,0.3916,0.99414,0.91895,1.02148c0.54785,0.02832,1.00488-0.3916,1.0293-0.94531
		C18.26074,32.5293,17.83789,32.07129,17.30664,32.05371"/>
	<path fill="#FFFFFF" d="M31.82227,30.47363c2.06445,0,4.12793-0.00391,6.19336,0.00293
		c0.59277,0.00195,1.05078,0.33691,1.22363,0.85693c0.16211,0.48779,0.01465,1.07178-0.41699,1.35107
		c-0.24121,0.15625-0.55664,0.27539-0.83984,0.27734c-4.11426,0.0166-8.22852,0.01465-12.3418,0.00781
		c-0.77246-0.00098-1.31445-0.54785-1.30371-1.26416c0.01172-0.7168,0.55371-1.22803,1.33691-1.22998
		C27.72363,30.46973,29.77246,30.47363,31.82227,30.47363"/>
	<path fill="#FFFFFF" d="M31.82227,33.93262c2.06445,0,4.12793-0.00391,6.19336,0.00195
		c0.59277,0.00195,1.05078,0.33789,1.22363,0.85742c0.16211,0.48828,0.01465,1.07129-0.41699,1.35156
		c-0.24121,0.15625-0.55664,0.27539-0.83984,0.27637c-4.11426,0.0166-8.22852,0.01465-12.3418,0.00879
		c-0.77246-0.00195-1.31445-0.54883-1.30371-1.26465c0.01172-0.7168,0.55371-1.22754,1.33691-1.22949
		C27.72363,33.92871,29.77246,33.93262,31.82227,33.93262"/>
	<path fill="#FFFFFF" d="M48.3877,23.10156h1.08398c0.76562-0.8291,2.74121-0.8291,3.63281-0.70117
		c0.89258,0.12695,0.89258,2.55029,0,2.67725c-0.8916,0.12793-3.95117-0.19092-3.63281-0.89209
		c0.31836-0.70215-1.08398-0.06396-1.08398-0.06396V23.10156z"/>
	<path fill="#FFFFFF" d="M15.41406,23.10156h-1.08398c-0.76465-0.8291-2.74121-0.8291-3.63281-0.70117
		c-0.89258,0.12695-0.89258,2.55029,0,2.67725c0.8916,0.12793,3.95215-0.19092,3.63281-0.89209
		c-0.31836-0.70215,1.08398-0.06396,1.08398-0.06396V23.10156z"/>
</g>
</svg>
